<svg
  width="48"
  height="48"
  viewBox="0 0 48 48"
  fill="none"
  xmlns="http://www.w3.org/2000/svg"
>
  <circle
    cx="24"
    cy="24"
    r="24"
    fill="white"
  />
  <mask
    id="mask0_220_46"
    style="mask-type: alpha"
    maskUnits="userSpaceOnUse"
    x="7"
    y="16"
    width="33"
    height="18"
  >
    <path
      d="M10.96 29.27C10.264 29.27 9.673 29.138 9.187 28.874C8.707 28.604 8.341 28.247 8.089 27.803C7.843 27.353 7.72 26.858 7.72 26.318C7.72 25.868 7.789 25.457 7.927 25.085C8.065 24.713 8.287 24.386 8.593 24.104C8.905 23.816 9.322 23.576 9.844 23.384C10.204 23.252 10.633 23.135 11.131 23.033C11.629 22.931 12.193 22.835 12.823 22.745C13.453 22.649 14.146 22.544 14.902 22.43L14.02 22.916C14.02 22.34 13.882 21.917 13.606 21.647C13.33 21.377 12.868 21.242 12.22 21.242C11.86 21.242 11.485 21.329 11.095 21.503C10.705 21.677 10.432 21.986 10.276 22.43L8.062 21.728C8.308 20.924 8.77 20.27 9.448 19.766C10.126 19.262 11.05 19.01 12.22 19.01C13.078 19.01 13.84 19.142 14.506 19.406C15.172 19.67 15.676 20.126 16.018 20.774C16.21 21.134 16.324 21.494 16.36 21.854C16.396 22.214 16.414 22.616 16.414 23.06V29H14.272V27.002L14.578 27.416C14.104 28.07 13.591 28.544 13.039 28.838C12.493 29.126 11.8 29.27 10.96 29.27ZM11.482 27.344C11.932 27.344 12.31 27.266 12.616 27.11C12.928 26.948 13.174 26.765 13.354 26.561C13.54 26.357 13.666 26.186 13.732 26.048C13.858 25.784 13.93 25.478 13.948 25.13C13.972 24.776 13.984 24.482 13.984 24.248L14.704 24.428C13.978 24.548 13.39 24.65 12.94 24.734C12.49 24.812 12.127 24.884 11.851 24.95C11.575 25.016 11.332 25.088 11.122 25.166C10.882 25.262 10.687 25.367 10.537 25.481C10.393 25.589 10.285 25.709 10.213 25.841C10.147 25.973 10.114 26.12 10.114 26.282C10.114 26.504 10.168 26.696 10.276 26.858C10.39 27.014 10.549 27.134 10.753 27.218C10.957 27.302 11.2 27.344 11.482 27.344ZM22.0841 29.27C21.1181 29.27 20.3111 29.045 19.6631 28.595C19.0151 28.145 18.5261 27.533 18.1961 26.759C17.8721 25.985 17.7101 25.112 17.7101 24.14C17.7101 23.168 17.8721 22.295 18.1961 21.521C18.5201 20.747 18.9971 20.135 19.6271 19.685C20.2571 19.235 21.0341 19.01 21.9581 19.01C22.8881 19.01 23.6981 19.232 24.3881 19.676C25.0781 20.12 25.6121 20.729 25.9901 21.503C26.3741 22.271 26.5661 23.15 26.5661 24.14C26.5661 25.112 26.3771 25.985 25.9991 26.759C25.6271 27.533 25.1051 28.145 24.4331 28.595C23.7611 29.045 22.9781 29.27 22.0841 29.27ZM17.2961 33.32V19.28H19.4561V25.94H19.7621V33.32H17.2961ZM21.6881 27.092C22.2161 27.092 22.6481 26.96 22.9841 26.696C23.3201 26.432 23.5691 26.078 23.7311 25.634C23.8931 25.184 23.9741 24.686 23.9741 24.14C23.9741 23.6 23.8901 23.108 23.7221 22.664C23.5541 22.214 23.2931 21.857 22.9391 21.593C22.5911 21.323 22.1441 21.188 21.5981 21.188C21.0881 21.188 20.6741 21.311 20.3561 21.557C20.0441 21.803 19.8161 22.148 19.6721 22.592C19.5281 23.036 19.4561 23.552 19.4561 24.14C19.4561 24.728 19.5281 25.244 19.6721 25.688C19.8161 26.132 20.0501 26.477 20.3741 26.723C20.7041 26.969 21.1421 27.092 21.6881 27.092ZM32.9386 29C32.2666 29.126 31.6066 29.18 30.9586 29.162C30.3166 29.15 29.7406 29.039 29.2306 28.829C28.7266 28.613 28.3426 28.268 28.0786 27.794C27.8386 27.35 27.7126 26.9 27.7006 26.444C27.6886 25.982 27.6826 25.46 27.6826 24.878V16.58H30.1306V24.734C30.1306 25.112 30.1336 25.454 30.1396 25.76C30.1516 26.06 30.2146 26.3 30.3286 26.48C30.5446 26.822 30.8896 27.008 31.3636 27.038C31.8376 27.068 32.3626 27.044 32.9386 26.966V29ZM26.0266 21.17V19.28H32.9386V21.17H26.0266ZM39.8506 29C39.1786 29.126 38.5186 29.18 37.8706 29.162C37.2286 29.15 36.6526 29.039 36.1426 28.829C35.6386 28.613 35.2546 28.268 34.9906 27.794C34.7506 27.35 34.6246 26.9 34.6126 26.444C34.6006 25.982 34.5946 25.46 34.5946 24.878V16.58H37.0426V24.734C37.0426 25.112 37.0456 25.454 37.0516 25.76C37.0636 26.06 37.1266 26.3 37.2406 26.48C37.4566 26.822 37.8016 27.008 38.2756 27.038C38.7496 27.068 39.2746 27.044 39.8506 26.966V29ZM32.9386 21.17V19.28H39.8506V21.17H32.9386Z"
      fill="#0C0C18"
    />
  </mask>
  <g mask="url(#mask0_220_46)">
    <path
      d="M16 36L25.5 13H-2.5V36H16Z"
      fill="#35D77B"
    />
    <path
      d="M16 36L25.5 13H48V36H16Z"
      fill="#6C3BCE"
    />
  </g>
</svg>
